# xmcd
#
# Track frame offsets:
#	150
#	16983
#	39095
#	62334
#	81209
#	95726
#	127230
#	155710
#	173380
#	212724
#	231928
#	255494
#
# Disc length: 3549 seconds
#
# Revision: 1
# Processed by: cddbd v1.4PL0 Copyright (c) Steve Scherf et al.
# Submitted via: audiograbber 1.82.02
#
DISCID=950ddb0c
DTITLE=Gospel Christmas - Gospel Christmas
DYEAR=2000
DGENRE=
TTITLE0=We Three Kings
TTITLE1=Do You Hear What I Hear
TTITLE2=Go Tell It On The Mountain
TTITLE3=O Come All Ye Faithful
TTITLE4=I Saw Three Ships
TTITLE5=Silent Night
TTITLE6=Joy To The World
TTITLE7=Away In A Manger
TTITLE8=O Holy Night
TTITLE9=Good Christian Men Rejoice
TTITLE10=Amazing Grace
TTITLE11=Joy To The World (Reprise)
EXTD=
EXTT0=
EXTT1=
EXTT2=
EXTT3=
EXTT4=
EXTT5=
EXTT6=
EXTT7=
EXTT8=
EXTT9=
EXTT10=
EXTT11=
PLAYORDER=
